<svg id="visual" viewBox="0 0 960 540" width="960" height="540" xmlns="http://www.w3.org/2000/svg" xmlns:xlink="http://www.w3.org/1999/xlink" version="1.1"><rect x="0" y="0" width="960" height="540" fill="#001220"></rect><defs><linearGradient id="grad1_0" x1="43.8%" y1="100%" x2="100%" y2="0%"><stop offset="14.444444444444446%" stop-color="#fbae3c" stop-opacity="1"></stop><stop offset="85.55555555555554%" stop-color="#fbae3c" stop-opacity="1"></stop></linearGradient></defs><defs><linearGradient id="grad1_1" x1="43.8%" y1="100%" x2="100%" y2="0%"><stop offset="14.444444444444446%" stop-color="#fbae3c" stop-opacity="1"></stop><stop offset="85.55555555555554%" stop-color="#eb7458" stop-opacity="1"></stop></linearGradient></defs><defs><linearGradient id="grad1_2" x1="43.8%" y1="100%" x2="100%" y2="0%"><stop offset="14.444444444444446%" stop-color="#b84e6c" stop-opacity="1"></stop><stop offset="85.55555555555554%" stop-color="#eb7458" stop-opacity="1"></stop></linearGradient></defs><defs><linearGradient id="grad1_3" x1="43.8%" y1="100%" x2="100%" y2="0%"><stop offset="14.444444444444446%" stop-color="#b84e6c" stop-opacity="1"></stop><stop offset="85.55555555555554%" stop-color="#713c69" stop-opacity="1"></stop></linearGradient></defs><defs><linearGradient id="grad1_4" x1="43.8%" y1="100%" x2="100%" y2="0%"><stop offset="14.444444444444446%" stop-color="#2d2b4c" stop-opacity="1"></stop><stop offset="85.55555555555554%" stop-color="#713c69" stop-opacity="1"></stop></linearGradient></defs><defs><linearGradient id="grad1_5" x1="43.8%" y1="100%" x2="100%" y2="0%"><stop offset="14.444444444444446%" stop-color="#2d2b4c" stop-opacity="1"></stop><stop offset="85.55555555555554%" stop-color="#001220" stop-opacity="1"></stop></linearGradient></defs><defs><linearGradient id="grad2_0" x1="0%" y1="100%" x2="56.3%" y2="0%"><stop offset="14.444444444444446%" stop-color="#fbae3c" stop-opacity="1"></stop><stop offset="85.55555555555554%" stop-color="#fbae3c" stop-opacity="1"></stop></linearGradient></defs><defs><linearGradient id="grad2_1" x1="0%" y1="100%" x2="56.3%" y2="0%"><stop offset="14.444444444444446%" stop-color="#eb7458" stop-opacity="1"></stop><stop offset="85.55555555555554%" stop-color="#fbae3c" stop-opacity="1"></stop></linearGradient></defs><defs><linearGradient id="grad2_2" x1="0%" y1="100%" x2="56.3%" y2="0%"><stop offset="14.444444444444446%" stop-color="#eb7458" stop-opacity="1"></stop><stop offset="85.55555555555554%" stop-color="#b84e6c" stop-opacity="1"></stop></linearGradient></defs><defs><linearGradient id="grad2_3" x1="0%" y1="100%" x2="56.3%" y2="0%"><stop offset="14.444444444444446%" stop-color="#713c69" stop-opacity="1"></stop><stop offset="85.55555555555554%" stop-color="#b84e6c" stop-opacity="1"></stop></linearGradient></defs><defs><linearGradient id="grad2_4" x1="0%" y1="100%" x2="56.3%" y2="0%"><stop offset="14.444444444444446%" stop-color="#713c69" stop-opacity="1"></stop><stop offset="85.55555555555554%" stop-color="#2d2b4c" stop-opacity="1"></stop></linearGradient></defs><defs><linearGradient id="grad2_5" x1="0%" y1="100%" x2="56.3%" y2="0%"><stop offset="14.444444444444446%" stop-color="#001220" stop-opacity="1"></stop><stop offset="85.55555555555554%" stop-color="#2d2b4c" stop-opacity="1"></stop></linearGradient></defs><g transform="translate(960, 540)"><path d="M-432 0C-416.6 -51.8 -401.1 -103.7 -383.4 -158.8C-365.7 -214 -345.7 -272.4 -305.5 -305.5C-265.2 -338.5 -204.7 -346.2 -150.4 -363.1C-96.1 -379.9 -48.1 -406 0 -432L0 0Z" fill="#131f37"></path><path d="M-360 0C-347.1 -43.2 -334.3 -86.4 -319.5 -132.3C-304.8 -178.3 -288.1 -227 -254.6 -254.6C-221 -282.1 -170.6 -288.5 -125.3 -302.6C-80.1 -316.6 -40 -338.3 0 -360L0 0Z" fill="#4d345e"></path><path d="M-288 0C-277.7 -34.6 -267.4 -69.1 -255.6 -105.9C-243.8 -142.6 -230.5 -181.6 -203.6 -203.6C-176.8 -225.7 -136.5 -230.8 -100.3 -242.1C-64.1 -253.3 -32 -270.6 0 -288L0 0Z" fill="#96446e"></path><path d="M-216 0C-208.3 -25.9 -200.6 -51.8 -191.7 -79.4C-182.9 -107 -172.9 -136.2 -152.7 -152.7C-132.6 -169.3 -102.3 -173.1 -75.2 -181.5C-48.1 -190 -24 -203 0 -216L0 0Z" fill="#d55e64"></path><path d="M-144 0C-138.9 -17.3 -133.7 -34.6 -127.8 -52.9C-121.9 -71.3 -115.2 -90.8 -101.8 -101.8C-88.4 -112.8 -68.2 -115.4 -50.1 -121C-32 -126.6 -16 -135.3 0 -144L0 0Z" fill="#f88f4a"></path><path d="M-72 0C-69.4 -8.6 -66.9 -17.3 -63.9 -26.5C-61 -35.7 -57.6 -45.4 -50.9 -50.9C-44.2 -56.4 -34.1 -57.7 -25.1 -60.5C-16 -63.3 -8 -67.7 0 -72L0 0Z" fill="#fbae3c"></path></g><g transform="translate(0, 0)"><path d="M432 0C422.7 57 413.4 114 389 161.1C364.5 208.3 325 245.6 287.1 287.1C249.2 328.6 212.9 374.3 165.3 399.1C117.7 424 58.9 428 0 432L0 0Z" fill="#131f37"></path><path d="M360 0C352.2 47.5 344.5 95 324.1 134.3C303.8 173.6 270.8 204.7 239.2 239.2C207.6 273.8 177.4 311.9 137.8 332.6C98.1 353.3 49.1 356.7 0 360L0 0Z" fill="#4d345e"></path><path d="M288 0C281.8 38 275.6 76 259.3 107.4C243 138.8 216.7 163.7 191.4 191.4C166.1 219.1 141.9 249.5 110.2 266.1C78.5 282.6 39.2 285.3 0 288L0 0Z" fill="#96446e"></path><path d="M216 0C211.3 28.5 206.7 57 194.5 80.6C182.3 104.1 162.5 122.8 143.5 143.5C124.6 164.3 106.4 187.1 82.7 199.6C58.9 212 29.4 214 0 216L0 0Z" fill="#d55e64"></path><path d="M144 0C140.9 19 137.8 38 129.7 53.7C121.5 69.4 108.3 81.9 95.7 95.7C83.1 109.5 71 124.8 55.1 133C39.2 141.3 19.6 142.7 0 144L0 0Z" fill="#f88f4a"></path><path d="M72 0C70.4 9.5 68.9 19 64.8 26.9C60.8 34.7 54.2 40.9 47.8 47.8C41.5 54.8 35.5 62.4 27.6 66.5C19.6 70.7 9.8 71.3 0 72L0 0Z" fill="#fbae3c"></path></g></svg>